G04 ================== begin FILE IDENTIFICATION RECORD ==================*
G04 Layout Name:  E:/projects/ET4207/ET4207_demoboard/ET4207DeMO.brd*
G04 Film Name:    BOTTOM*
G04 File Format:  Gerber RS274X*
G04 File Origin:  Cadence Allegro 16.6-P004*
G04 Origin Date:  Mon Jan 11 08:28:48 2016*
G04 *
G04 Layer:  ETCH/BOTTOM*
G04 Layer:  PIN/BOTTOM*
G04 Layer:  VIA CLASS/BOTTOM*
G04 *
G04 Offset:    (0.000 0.000)*
G04 Mirror:    No*
G04 Mode:      Positive*
G04 Rotation:  0*
G04 FullContactRelief:  No*
G04 UndefLineWidth:     6.000*
G04 ================== end FILE IDENTIFICATION RECORD ====================*
%FSLAX25Y25*MOIN*%
%IR0*IPPOS*OFA0.00000B0.00000*MIA0B0*SFA1.00000B1.00000*%
%ADD10C,.032*%
%ADD12C,.06*%
%ADD13C,.075*%
%ADD14C,.058*%
%ADD11R,.06X.06*%
%ADD15R,.058X.058*%
%ADD16C,.008*%
%ADD17C,.01*%
%ADD18C,.02*%
%ADD21C,.082004*%
%ADD20R,.082004X.082004*%
%ADD22C,.084004*%
%ADD23R,.084004X.084004*%
%ADD19C,.099004*%
G75*
%LPD*%
G75*
G36*
G01X119000Y10000D02*
G02X110000Y1000I-9000J0D01*
G01X10000D01*
G02X1000Y10000I0J9000D01*
G01Y110000D01*
G02X10000Y119000I9000J0D01*
G01X110000D01*
G02X119000Y110000I0J-9000D01*
G01Y10000D01*
G37*
%LPC*%
G75*
G36*
G01X50400Y86085D02*
Y14823D01*
G02X47400I-1500J-3923D01*
G01Y86085D01*
G02X50400I1500J2124D01*
G37*
G54D21*
X109700Y54400D03*
G54D20*
Y64400D03*
G54D22*
X78900Y10900D03*
X68900D03*
X58900D03*
X38900D03*
G54D23*
X28900D03*
G54D19*
X108700Y106800D03*
X97700D03*
%LPD*%
G75*
G54D10*
X5300Y26200D03*
X13200Y6500D03*
X11000Y16800D03*
X19300Y56100D03*
X13600Y66100D03*
X21200Y90800D03*
X20400Y81400D03*
X7500Y100900D03*
X19600Y101100D03*
X28600Y100500D03*
X11000Y113100D03*
X41300Y50900D03*
X42700Y92700D03*
X43600Y76600D03*
X48900Y88209D03*
X41000Y115700D03*
X49800Y108800D03*
X78900Y83406D03*
X80500Y107900D03*
X104000Y11600D03*
X114000Y19900D03*
X115700Y87300D03*
G54D11*
X28900Y10900D03*
G54D12*
X38900D03*
X48900D03*
X58900D03*
X68900D03*
X78900D03*
G54D13*
X97700Y106800D03*
X108700D03*
G54D14*
X109700Y54400D03*
G54D15*
Y64400D03*
G54D16*
G01X49800Y108800D02*
X78900D01*
Y83406D01*
G01D02*
Y10900D01*
G54D17*
G01X48900Y88209D02*
Y10900D01*
G54D18*
G01X78900Y6500D02*
Y10900D01*
G01X74500D02*
X78900D01*
G01D02*
X83300D01*
M02*
