G04 ================== begin FILE IDENTIFICATION RECORD ==================*
G04 Layout Name:  E:/projects/ET4207/ET4207_demoboard/ET4207DeMO.brd*
G04 Film Name:    SILKSCREEN_BOTTOM*
G04 File Format:  Gerber RS274X*
G04 File Origin:  Cadence Allegro 16.6-P004*
G04 Origin Date:  Mon Jan 11 08:28:48 2016*
G04 *
G04 Layer:  REF DES/SILKSCREEN_BOTTOM*
G04 Layer:  PACKAGE GEOMETRY/SILKSCREEN_BOTTOM*
G04 Layer:  MANUFACTURING/AUTOSILK_BOTTOM*
G04 Layer:  BOARD GEOMETRY/OUTLINE*
G04 Layer:  BOARD GEOMETRY/SILKSCREEN_BOTTOM*
G04 *
G04 Offset:    (0.000 0.000)*
G04 Mirror:    No*
G04 Mode:      Positive*
G04 Rotation:  0*
G04 FullContactRelief:  No*
G04 UndefLineWidth:     6.000*
G04 ================== end FILE IDENTIFICATION RECORD ====================*
%FSLAX25Y25*MOIN*%
%IR0*IPPOS*OFA0.00000B0.00000*MIA0B0*SFA1.00000B1.00000*%
%ADD10C,.01*%
G75*
%LPD*%
G75*
G54D10*
G01X10000Y0D02*
X110000D01*
G03X120000Y10000I0J10000D01*
G01Y110000D01*
G03X110000Y120000I-10000J0D01*
G01X10000D01*
G03X0Y110000I0J-10000D01*
G01Y10000D01*
G03X10000Y0I10000J0D01*
G01X31200Y18617D02*
X26200Y20200D01*
X31200Y21783D01*
G01X26200Y23907D02*
X31200D01*
Y25173D01*
X30950Y25680D01*
X30617Y26060D01*
X30117Y26377D01*
X29533Y26630D01*
X28700Y26693D01*
X27867Y26630D01*
X27283Y26377D01*
X26783Y26060D01*
X26450Y25680D01*
X26200Y25173D01*
Y23907D01*
G01Y29007D02*
X31200D01*
Y30273D01*
X30950Y30780D01*
X30617Y31160D01*
X30117Y31477D01*
X29533Y31730D01*
X28700Y31793D01*
X27867Y31730D01*
X27283Y31477D01*
X26783Y31160D01*
X26450Y30780D01*
X26200Y30273D01*
Y29007D01*
G01X24533Y33600D02*
Y37400D01*
G01X27200Y39207D02*
X26617Y39587D01*
X26283Y40093D01*
X26200Y40663D01*
X26283Y41170D01*
X26700Y41677D01*
X27200Y41993D01*
X27700Y42057D01*
X28283Y41930D01*
X28700Y41487D01*
X28867Y41043D01*
Y40473D01*
G01Y41043D02*
X29117Y41423D01*
X29533Y41740D01*
X30033Y41867D01*
X30533Y41740D01*
X30950Y41423D01*
X31200Y40853D01*
X31117Y40283D01*
X30783Y39713D01*
G01X31200Y44117D02*
X26200Y45700D01*
X31200Y47283D01*
G01X27200Y49407D02*
X26617Y49787D01*
X26283Y50293D01*
X26200Y50863D01*
X26283Y51370D01*
X26700Y51877D01*
X27200Y52193D01*
X27700Y52257D01*
X28283Y52130D01*
X28700Y51687D01*
X28867Y51243D01*
Y50673D01*
G01Y51243D02*
X29117Y51623D01*
X29533Y51940D01*
X30033Y52067D01*
X30533Y51940D01*
X30950Y51623D01*
X31200Y51053D01*
X31117Y50483D01*
X30783Y49913D01*
G01X41500Y19017D02*
X36500Y20600D01*
X41500Y22183D01*
G01X36500Y24307D02*
X41500D01*
Y25573D01*
X41250Y26080D01*
X40917Y26460D01*
X40417Y26777D01*
X39833Y27030D01*
X39000Y27093D01*
X38167Y27030D01*
X37583Y26777D01*
X37083Y26460D01*
X36750Y26080D01*
X36500Y25573D01*
Y24307D01*
G01Y29407D02*
X41500D01*
Y30673D01*
X41250Y31180D01*
X40917Y31560D01*
X40417Y31877D01*
X39833Y32130D01*
X39000Y32193D01*
X38167Y32130D01*
X37583Y31877D01*
X37083Y31560D01*
X36750Y31180D01*
X36500Y30673D01*
Y29407D01*
G01X34833Y34000D02*
Y37800D01*
G01X36500Y41000D02*
X41500D01*
X40500Y40240D01*
G01X36500D02*
Y41760D01*
G01X41500Y44517D02*
X36500Y46100D01*
X41500Y47683D01*
G01X36500Y51200D02*
X36583Y51643D01*
X36833Y52150D01*
X37250Y52467D01*
X37833Y52593D01*
X38417Y52467D01*
X38917Y52087D01*
X39167Y51517D01*
Y50883D01*
X39333Y50503D01*
X39750Y50187D01*
X40333Y50060D01*
X40917Y50250D01*
X41333Y50693D01*
X41500Y51200D01*
X41333Y51707D01*
X40917Y52150D01*
X40333Y52340D01*
X39750Y52213D01*
X39333Y51897D01*
X39167Y51517D01*
Y50883D01*
X38917Y50313D01*
X38417Y49933D01*
X37833Y49807D01*
X37250Y49933D01*
X36833Y50250D01*
X36583Y50757D01*
X36500Y51200D01*
G01X57666Y19770D02*
X57250Y20277D01*
X57000Y20847D01*
Y21353D01*
X57250Y21860D01*
X57666Y22240D01*
X58250Y22430D01*
X58833Y22303D01*
X59333Y21987D01*
X59667Y21417D01*
X59833Y20657D01*
X60167Y20213D01*
X60750Y20023D01*
X61333Y20150D01*
X61750Y20467D01*
X62000Y20910D01*
Y21353D01*
X61833Y21797D01*
X61417Y22177D01*
G01X57000Y24807D02*
X62000D01*
Y26073D01*
X61750Y26580D01*
X61417Y26960D01*
X60917Y27277D01*
X60333Y27530D01*
X59500Y27593D01*
X58667Y27530D01*
X58083Y27277D01*
X57583Y26960D01*
X57250Y26580D01*
X57000Y26073D01*
Y24807D01*
G01Y29717D02*
X62000Y31300D01*
X57000Y32883D01*
G01X58750Y32313D02*
Y30287D01*
G01X67266Y19470D02*
X66850Y19977D01*
X66600Y20547D01*
Y21053D01*
X66850Y21560D01*
X67266Y21940D01*
X67850Y22130D01*
X68433Y22003D01*
X68933Y21687D01*
X69267Y21117D01*
X69433Y20357D01*
X69767Y19913D01*
X70350Y19723D01*
X70933Y19850D01*
X71350Y20167D01*
X71600Y20610D01*
Y21053D01*
X71433Y21497D01*
X71017Y21877D01*
G01X71183Y27293D02*
X71433Y26913D01*
X71600Y26470D01*
Y25963D01*
X71350Y25393D01*
X70933Y24950D01*
X70433Y24633D01*
X69600Y24380D01*
X68850Y24317D01*
X68100Y24443D01*
X67600Y24633D01*
X67100Y25013D01*
X66767Y25457D01*
X66600Y25900D01*
Y26343D01*
X66767Y26787D01*
X67017Y27167D01*
X67350Y27483D01*
G01X71600Y29733D02*
X66600D01*
Y32267D01*
G01X49167Y21807D02*
X49417Y22060D01*
X49833Y22250D01*
X50417Y22377D01*
X50917Y22250D01*
X51250Y21997D01*
X51500Y21553D01*
Y19843D01*
X46500D01*
Y21933D01*
X46833Y22377D01*
X47333Y22630D01*
X47917Y22757D01*
X48500Y22630D01*
X49000Y22250D01*
X49167Y21807D01*
Y19843D01*
G01X51500Y25007D02*
X47917D01*
X47167Y25260D01*
X46667Y25767D01*
X46500Y26400D01*
X46667Y27033D01*
X47167Y27540D01*
X47917Y27793D01*
X51500D01*
G01X47167Y30170D02*
X46750Y30677D01*
X46500Y31247D01*
Y31753D01*
X46750Y32260D01*
X47167Y32640D01*
X47750Y32830D01*
X48333Y32703D01*
X48833Y32387D01*
X49167Y31817D01*
X49333Y31057D01*
X49667Y30613D01*
X50250Y30423D01*
X50833Y30550D01*
X51250Y30867D01*
X51500Y31310D01*
Y31753D01*
X51333Y32197D01*
X50917Y32577D01*
G01X46500Y36600D02*
X48750D01*
X51500Y35333D01*
G01Y37867D02*
X48750Y36600D01*
G01X79000Y22080D02*
Y23347D01*
X77500D01*
X77000Y22967D01*
X76667Y22523D01*
X76500Y21890D01*
X76667Y21257D01*
X77000Y20813D01*
X77500Y20433D01*
X78083Y20180D01*
X78750Y20053D01*
X79333D01*
X79833Y20180D01*
X80417Y20433D01*
X80917Y20813D01*
X81250Y21193D01*
X81500Y21700D01*
Y22143D01*
X81333Y22650D01*
X81000Y23030D01*
G01X76500Y25343D02*
X81500D01*
X76500Y28257D01*
X81500D01*
G01X76500Y30507D02*
X81500D01*
Y31773D01*
X81250Y32280D01*
X80917Y32660D01*
X80417Y32977D01*
X79833Y33230D01*
X79000Y33293D01*
X78167Y33230D01*
X77583Y32977D01*
X77083Y32660D01*
X76750Y32280D01*
X76500Y31773D01*
Y30507D01*
G01X114467Y76400D02*
Y71400D01*
X111933D01*
G01X106833D02*
X109367D01*
Y76400D01*
X106833D01*
G01X107847Y73983D02*
X109367D01*
G01X104393Y71400D02*
Y76400D01*
X103127D01*
X102620Y76150D01*
X102240Y75817D01*
X101923Y75317D01*
X101670Y74733D01*
X101607Y73900D01*
X101670Y73067D01*
X101923Y72483D01*
X102240Y71983D01*
X102620Y71650D01*
X103127Y71400D01*
X104393D01*
G01X98597Y73067D02*
X97077D01*
G01X97900Y74150D02*
Y71983D01*
G01X114467Y48800D02*
Y43800D01*
X111933D01*
G01X106833D02*
X109367D01*
Y48800D01*
X106833D01*
G01X107847Y46383D02*
X109367D01*
G01X104393Y43800D02*
Y48800D01*
X103127D01*
X102620Y48550D01*
X102240Y48217D01*
X101923Y47717D01*
X101670Y47133D01*
X101607Y46300D01*
X101670Y45467D01*
X101923Y44883D01*
X102240Y44383D01*
X102620Y44050D01*
X103127Y43800D01*
X104393D01*
G01X98723Y45467D02*
X97077D01*
M02*
