G04 ================== begin FILE IDENTIFICATION RECORD ==================*
G04 Layout Name:  E:/projects/ET4207/ET4207_demoboard/ET4207DeMO.brd*
G04 Film Name:    SILKSCREEN_TOP*
G04 File Format:  Gerber RS274X*
G04 File Origin:  Cadence Allegro 16.6-P004*
G04 Origin Date:  Mon Jan 11 08:28:48 2016*
G04 *
G04 Layer:  REF DES/SILKSCREEN_TOP*
G04 Layer:  PACKAGE GEOMETRY/SILKSCREEN_TOP*
G04 Layer:  MANUFACTURING/AUTOSILK_TOP*
G04 Layer:  BOARD GEOMETRY/OUTLINE*
G04 Layer:  BOARD GEOMETRY/SILKSCREEN_TOP*
G04 *
G04 Offset:    (0.000 0.000)*
G04 Mirror:    No*
G04 Mode:      Positive*
G04 Rotation:  0*
G04 FullContactRelief:  No*
G04 UndefLineWidth:     6.000*
G04 ================== end FILE IDENTIFICATION RECORD ====================*
%FSLAX25Y25*MOIN*%
%IR0*IPPOS*OFA0.00000B0.00000*MIA0B0*SFA1.00000B1.00000*%
%ADD10C,.003*%
%ADD11C,.005*%
%ADD12C,.006*%
%ADD13C,.007*%
%ADD14C,.008*%
%ADD15C,.005902*%
%ADD16C,.00394*%
%ADD17C,.009843*%
%ADD18C,.007874*%
%ADD19C,.01*%
G75*
%LPD*%
G75*
G54D10*
G01X92833Y37893D02*
X96500Y35107D01*
G01X97167Y36500D02*
X92167D01*
G01X92833Y35107D02*
X96500Y37893D01*
G01X94667Y38400D02*
Y34600D01*
G01X97700Y64967D02*
X97200Y64650D01*
X96867Y64270D01*
X96700Y63827D01*
X96867Y63320D01*
X97200Y62940D01*
X97700Y62560D01*
X98367Y62433D01*
X101700D01*
G01X96700Y58600D02*
X101700D01*
X100700Y59360D01*
G01X96700D02*
Y57840D01*
G01X97700Y54893D02*
X97117Y54513D01*
X96783Y54007D01*
X96700Y53437D01*
X96783Y52930D01*
X97200Y52423D01*
X97700Y52107D01*
X98200Y52043D01*
X98783Y52170D01*
X99200Y52613D01*
X99367Y53057D01*
Y53627D01*
G01Y53057D02*
X99617Y52677D01*
X100033Y52360D01*
X100533Y52233D01*
X101033Y52360D01*
X101450Y52677D01*
X101700Y53247D01*
X101617Y53817D01*
X101283Y54387D01*
G01X104200Y71900D02*
Y76900D01*
X103440Y75900D01*
G01Y71900D02*
X104960D01*
G01X98807Y63733D02*
X101593Y67400D01*
G01X100200Y68067D02*
Y63067D01*
G01X101593Y63733D02*
X98807Y67400D01*
G01X98300Y65567D02*
X102100D01*
G54D11*
G01X17280Y1283D02*
X17590Y1475D01*
X17797Y1705D01*
X17900Y1973D01*
X17797Y2280D01*
X17590Y2510D01*
X17280Y2740D01*
X16867Y2817D01*
X14800D01*
G01X17900Y5150D02*
X14800D01*
X15420Y4690D01*
G01X17900D02*
Y5610D01*
G01X37900Y35883D02*
X34800D01*
Y36842D01*
X34955Y37148D01*
X35162Y37340D01*
X35575Y37417D01*
X35988Y37340D01*
X36247Y37110D01*
X36402Y36842D01*
Y35883D01*
G01Y36842D02*
X37900Y37417D01*
G01Y39750D02*
X34800D01*
X35420Y39290D01*
G01X37900D02*
Y40210D01*
G01X37435Y42007D02*
X37693Y42237D01*
X37848Y42505D01*
X37900Y42850D01*
X37797Y43195D01*
X37590Y43463D01*
X37228Y43655D01*
X36815Y43693D01*
X36402Y43617D01*
X36143Y43425D01*
X35937Y43157D01*
X35885Y42888D01*
X35937Y42620D01*
X36143Y42275D01*
X34800Y42390D01*
Y43425D01*
G01X19107Y102000D02*
Y99778D01*
X19260Y99313D01*
X19567Y99003D01*
X19950Y98900D01*
X20333Y99003D01*
X20640Y99313D01*
X20793Y99778D01*
Y102000D01*
G01X22207Y99520D02*
X22437Y99158D01*
X22743Y98952D01*
X23088Y98900D01*
X23395Y98952D01*
X23702Y99210D01*
X23893Y99520D01*
X23932Y99830D01*
X23855Y100192D01*
X23587Y100450D01*
X23318Y100553D01*
X22973D01*
G01X23318D02*
X23548Y100708D01*
X23740Y100967D01*
X23817Y101277D01*
X23740Y101587D01*
X23548Y101845D01*
X23203Y102000D01*
X22858Y101948D01*
X22513Y101742D01*
G01X18693Y116942D02*
X18463Y117097D01*
X18195Y117200D01*
X17888D01*
X17543Y117045D01*
X17275Y116787D01*
X17083Y116477D01*
X16930Y115960D01*
X16892Y115495D01*
X16968Y115030D01*
X17083Y114720D01*
X17313Y114410D01*
X17582Y114203D01*
X17850Y114100D01*
X18118D01*
X18387Y114203D01*
X18617Y114358D01*
X18808Y114565D01*
G01X20222Y115392D02*
X20490Y115753D01*
X20720Y115960D01*
X21027Y116063D01*
X21295Y115960D01*
X21487Y115753D01*
X21640Y115443D01*
X21678Y115082D01*
X21640Y114772D01*
X21487Y114462D01*
X21257Y114203D01*
X20988Y114100D01*
X20682Y114203D01*
X20413Y114513D01*
X20260Y114978D01*
X20222Y115495D01*
X20298Y116167D01*
X20413Y116528D01*
X20605Y116890D01*
X20873Y117148D01*
X21142Y117200D01*
X21410Y117097D01*
X21602Y116838D01*
G01X16000Y111800D02*
G03Y104800I-228J-3500D01*
G01X23600D01*
G03Y111800I228J3500D01*
G01X16000D01*
G01X49200Y48883D02*
X46100D01*
Y49842D01*
X46255Y50148D01*
X46462Y50340D01*
X46875Y50417D01*
X47288Y50340D01*
X47547Y50110D01*
X47702Y49842D01*
Y48883D01*
G01Y49842D02*
X49200Y50417D01*
G01Y52750D02*
X46100D01*
X46720Y52290D01*
G01X49200D02*
Y53210D01*
G01Y55773D02*
X48528Y55850D01*
X47960Y55965D01*
X47443Y56118D01*
X46875Y56310D01*
X46100Y56617D01*
Y55083D01*
G01X57993Y117342D02*
X57763Y117497D01*
X57495Y117600D01*
X57188D01*
X56843Y117445D01*
X56575Y117187D01*
X56383Y116877D01*
X56230Y116360D01*
X56192Y115895D01*
X56268Y115430D01*
X56383Y115120D01*
X56613Y114810D01*
X56882Y114603D01*
X57150Y114500D01*
X57418D01*
X57687Y114603D01*
X57917Y114758D01*
X58108Y114965D01*
G01X60173Y114500D02*
X60250Y115172D01*
X60365Y115740D01*
X60518Y116257D01*
X60710Y116825D01*
X61017Y117600D01*
X59483D01*
G01X55500Y112700D02*
G03Y105700I-228J-3500D01*
G01X63100D01*
G03Y112700I228J3500D01*
G01X55500D01*
G01X70500Y49583D02*
X67400D01*
Y50542D01*
X67555Y50848D01*
X67762Y51040D01*
X68175Y51117D01*
X68588Y51040D01*
X68847Y50810D01*
X69002Y50542D01*
Y49583D01*
G01Y50542D02*
X70500Y51117D01*
G01Y53450D02*
X67400D01*
X68020Y52990D01*
G01X70500D02*
Y53910D01*
G01X69208Y55822D02*
X68847Y56090D01*
X68640Y56320D01*
X68537Y56627D01*
X68640Y56895D01*
X68847Y57087D01*
X69157Y57240D01*
X69518Y57278D01*
X69828Y57240D01*
X70138Y57087D01*
X70397Y56857D01*
X70500Y56588D01*
X70397Y56282D01*
X70087Y56013D01*
X69622Y55860D01*
X69105Y55822D01*
X68433Y55898D01*
X68072Y56013D01*
X67710Y56205D01*
X67452Y56473D01*
X67400Y56742D01*
X67503Y57010D01*
X67762Y57202D01*
G01X90700Y98800D02*
G03Y114300I10261J7750D01*
G01Y98800D01*
G01X83207Y106800D02*
Y109900D01*
X83973D01*
X84280Y109745D01*
X84510Y109538D01*
X84702Y109228D01*
X84855Y108867D01*
X84893Y108350D01*
X84855Y107833D01*
X84702Y107472D01*
X84510Y107162D01*
X84280Y106955D01*
X83973Y106800D01*
X83207D01*
G01X87073D02*
X87150Y107472D01*
X87265Y108040D01*
X87418Y108557D01*
X87610Y109125D01*
X87917Y109900D01*
X86383D01*
G01X102650Y19200D02*
X102343Y19252D01*
X102075Y19458D01*
X101845Y19768D01*
X101692Y20130D01*
X101615Y20543D01*
Y20957D01*
X101692Y21370D01*
X101845Y21732D01*
X102075Y22042D01*
X102343Y22248D01*
X102650Y22300D01*
X102957Y22248D01*
X103225Y22042D01*
X103455Y21732D01*
X103608Y21370D01*
X103685Y20957D01*
Y20543D01*
X103608Y20130D01*
X103455Y19768D01*
X103225Y19458D01*
X102957Y19252D01*
X102650Y19200D01*
G01X102957Y20027D02*
X103417Y19200D01*
G01X105750D02*
Y22300D01*
X105290Y21680D01*
G01Y19200D02*
X106210D01*
G54D12*
G01X27300Y39300D02*
X25300D01*
G01X30300D02*
X32300D01*
G01X30300Y40300D02*
Y38300D01*
X27300D01*
Y40300D01*
X30300D01*
G01X32300Y46300D02*
Y32300D01*
X25300D01*
Y46300D01*
X32300D01*
G01X33500Y64400D02*
X31500D01*
G01X33500Y63400D02*
Y65400D01*
X36500D01*
Y63400D01*
X33500D01*
G01X31500Y57400D02*
Y71400D01*
X38500D01*
Y57400D01*
X31500D01*
G01X10293Y56842D02*
X10063Y56997D01*
X9795Y57100D01*
X9488D01*
X9143Y56945D01*
X8875Y56687D01*
X8683Y56377D01*
X8530Y55860D01*
X8492Y55395D01*
X8568Y54930D01*
X8683Y54620D01*
X8913Y54310D01*
X9182Y54103D01*
X9450Y54000D01*
X9718D01*
X9987Y54103D01*
X10217Y54258D01*
X10408Y54465D01*
G01X12550Y57100D02*
Y54000D01*
G01X11668Y57100D02*
X13432D01*
G01X14922Y56583D02*
X15152Y56893D01*
X15420Y57048D01*
X15727Y57100D01*
X16110Y56997D01*
X16378Y56738D01*
X16455Y56428D01*
X16417Y56118D01*
X16263Y55860D01*
X15497Y55343D01*
X15152Y54982D01*
X14922Y54465D01*
X14845Y54000D01*
X16455D01*
G01X36400Y73783D02*
X33300D01*
Y74742D01*
X33455Y75048D01*
X33662Y75240D01*
X34075Y75317D01*
X34488Y75240D01*
X34747Y75010D01*
X34902Y74742D01*
Y73783D01*
G01Y74742D02*
X36400Y75317D01*
G01Y77650D02*
X36348Y77918D01*
X36193Y78225D01*
X35935Y78417D01*
X35573Y78493D01*
X35212Y78417D01*
X34902Y78187D01*
X34747Y77842D01*
Y77458D01*
X34643Y77228D01*
X34385Y77037D01*
X34023Y76960D01*
X33662Y77075D01*
X33403Y77343D01*
X33300Y77650D01*
X33403Y77957D01*
X33662Y78225D01*
X34023Y78340D01*
X34385Y78263D01*
X34643Y78072D01*
X34747Y77842D01*
Y77458D01*
X34902Y77113D01*
X35212Y76883D01*
X35573Y76807D01*
X35935Y76883D01*
X36193Y77075D01*
X36348Y77382D01*
X36400Y77650D01*
G01X50500Y39700D02*
X52500D01*
G01X47500D02*
X45500D01*
G01X47500Y38700D02*
Y40700D01*
X50500D01*
Y38700D01*
X47500D01*
G01X45500Y32700D02*
Y46700D01*
X52500D01*
Y32700D01*
X45500D01*
G01X60400Y39700D02*
X62400D01*
G01X57400D02*
X55400D01*
G01X57400Y38700D02*
Y40700D01*
X60400D01*
Y38700D01*
X57400D01*
G01X55400Y32700D02*
Y46700D01*
X62400D01*
Y32700D01*
X55400D01*
G01X36500Y64400D02*
X38500D01*
G01X60500Y48983D02*
X57400D01*
Y49942D01*
X57555Y50248D01*
X57762Y50440D01*
X58175Y50517D01*
X58588Y50440D01*
X58847Y50210D01*
X59002Y49942D01*
Y48983D01*
G01Y49942D02*
X60500Y50517D01*
G01Y52850D02*
X57400D01*
X58020Y52390D01*
G01X60500D02*
Y53310D01*
G01Y55950D02*
X60448Y56218D01*
X60293Y56525D01*
X60035Y56717D01*
X59673Y56793D01*
X59312Y56717D01*
X59002Y56487D01*
X58847Y56142D01*
Y55758D01*
X58743Y55528D01*
X58485Y55337D01*
X58123Y55260D01*
X57762Y55375D01*
X57503Y55643D01*
X57400Y55950D01*
X57503Y56257D01*
X57762Y56525D01*
X58123Y56640D01*
X58485Y56563D01*
X58743Y56372D01*
X58847Y56142D01*
Y55758D01*
X59002Y55413D01*
X59312Y55183D01*
X59673Y55107D01*
X60035Y55183D01*
X60293Y55375D01*
X60448Y55682D01*
X60500Y55950D01*
G01X70400Y39900D02*
X72400D01*
G01X67400D02*
X65400D01*
G01X67400Y38900D02*
Y40900D01*
X70400D01*
Y38900D01*
X67400D01*
G01X65400Y32900D02*
Y46900D01*
X72400D01*
Y32900D01*
X65400D01*
G01X79983Y41800D02*
Y44900D01*
X80942D01*
X81248Y44745D01*
X81440Y44538D01*
X81517Y44125D01*
X81440Y43712D01*
X81210Y43453D01*
X80942Y43298D01*
X79983D01*
G01X80942D02*
X81517Y41800D01*
G01X83850D02*
Y44900D01*
X83390Y44280D01*
G01Y41800D02*
X84310D01*
G01X86298Y42162D02*
X86567Y41903D01*
X86873Y41800D01*
X87180Y41903D01*
X87448Y42213D01*
X87640Y42678D01*
X87717Y43143D01*
Y43712D01*
X87640Y44177D01*
X87448Y44590D01*
X87218Y44797D01*
X86950Y44900D01*
X86643Y44797D01*
X86413Y44590D01*
X86260Y44280D01*
X86183Y43867D01*
X86260Y43505D01*
X86452Y43143D01*
X86682Y42937D01*
X86950Y42885D01*
X87257Y42988D01*
X87487Y43247D01*
X87717Y43712D01*
G01X84400Y37700D02*
Y39700D01*
G01Y34700D02*
Y32700D01*
G01X85400Y34700D02*
X83400D01*
Y37700D01*
X85400D01*
Y34700D01*
G01X91400Y32700D02*
X77400D01*
Y39700D01*
X91400D01*
Y32700D01*
G01X89483Y77700D02*
Y80800D01*
X90442D01*
X90748Y80645D01*
X90940Y80438D01*
X91017Y80025D01*
X90940Y79612D01*
X90710Y79353D01*
X90442Y79198D01*
X89483D01*
G01X90442D02*
X91017Y77700D01*
G01X93350D02*
Y80800D01*
X92890Y80180D01*
G01Y77700D02*
X93810D01*
G01X96910D02*
Y80800D01*
X95492Y78578D01*
X97408D01*
G01X93600Y87500D02*
Y89500D01*
G01Y84500D02*
Y82500D01*
G01X94600Y84500D02*
X92600D01*
Y87500D01*
X94600D01*
Y84500D01*
G01X100600Y82500D02*
X86600D01*
Y89500D01*
X100600D01*
Y82500D01*
G54D13*
G01X105000Y26000D02*
Y39000D01*
X103000D01*
Y26000D01*
X105000D01*
G01X112200Y69400D02*
X107200D01*
X104700Y66900D01*
Y49400D01*
X114700D01*
Y66900D01*
X112200Y69400D01*
G54D14*
G01X5800Y33000D02*
Y31000D01*
G01D02*
X6900D01*
G01X18800Y33000D02*
Y31000D01*
G01D02*
X17700D01*
G01Y49000D02*
X18800D01*
G01D02*
Y47000D01*
G01Y48000D02*
X17700D01*
G01X6900Y49000D02*
X5800D01*
G01D02*
Y47000D01*
G01Y48000D02*
X6900D01*
G54D15*
G01X71342Y85906D02*
Y84114D01*
X71449Y83739D01*
X71662Y83489D01*
X71929Y83406D01*
X72196Y83489D01*
X72409Y83739D01*
X72516Y84114D01*
Y85906D01*
G01X74129Y83406D02*
Y85906D01*
X73809Y85406D01*
G01Y83406D02*
X74449D01*
G54D16*
G01X54200Y77500D02*
X66011D01*
Y89311D01*
X54200D01*
Y77500D01*
G01Y89311D02*
Y77500D01*
X66011D01*
Y89311D01*
X54200D01*
G01X54293Y75925D02*
G03I-880J0D01*
G54D17*
G01X12262Y95834D02*
G03I-492J0D01*
G54D18*
G01X13739Y78039D02*
Y76661D01*
X31061D01*
Y78039D01*
G01X13739Y95361D02*
Y96739D01*
X31061D01*
Y95361D01*
G54D19*
G01X10000Y0D02*
X110000D01*
G03X120000Y10000I0J10000D01*
G01Y110000D01*
G03X110000Y120000I-10000J0D01*
G01X10000D01*
G03X0Y110000I0J-10000D01*
G01Y10000D01*
G03X10000Y0I10000J0D01*
G01X18900Y900D02*
Y24900D01*
X88900D01*
Y900D01*
X18900D01*
G01X24900D02*
Y6900D01*
X32900D01*
Y900D01*
G01X20900D02*
X18900Y2900D01*
G01X22900Y900D02*
X18900Y4900D01*
X22900D01*
Y6900D01*
X18900D01*
G01X74900Y900D02*
Y6900D01*
X82900D01*
Y900D01*
G01X88900Y4900D02*
X84900D01*
Y6900D01*
X88900D01*
G01X107100Y90967D02*
X109500D01*
G01X108200Y92700D02*
Y89233D01*
M02*
